<?xml version="1.0" encoding="utf-8"?>
<!-- Generator: Adobe Illustrator 15.0.0, SVG Export Plug-In . SVG Version: 6.00 Build 0)  -->
<!DOCTYPE svg PUBLIC "-//W3C//DTD SVG 1.1//EN" "http://www.w3.org/Graphics/SVG/1.1/DTD/svg11.dtd">
<svg version="1.1" id="Ebene_1" xmlns="http://www.w3.org/2000/svg" xmlns:xlink="http://www.w3.org/1999/xlink" x="0px" y="0px"
	 width="512px" height="512px" viewBox="0 0 512 512" enable-background="new 0 0 512 512" xml:space="preserve">
<g>
	<defs>
		<rect id="SVGID_1_" width="512" height="512"/>
	</defs>
	<clipPath id="SVGID_2_">
		<use xlink:href="#SVGID_1_"  overflow="visible"/>
	</clipPath>
	<path clip-path="url(#SVGID_2_)" d="M233.354,239.046v50.448h207.495v149.347c-32.087,7.751-64.955,11.625-98.579,11.625
		c-6.549,0-12.926-0.193-19.136-0.571c-52.579-3.199-93.155-19.938-121.755-50.209c-25.254-26.74-40.538-63.327-45.837-109.796
		h20.565v-50.123h-22.519c0.833-25.001,4.595-45.889,11.272-64.307c8.283-22.833,21.059-41.848,38.343-60.167
		c30.313-32.138,71.096-50.208,122.966-53.09c4.909-0.275,9.907-0.412,15.017-0.412c4.716,0,9.466,0.137,14.236,0.412h91.249v19.849
		h50.448V12.085H14.733v485.133h0.197v0.149h77.967v-50.448H71.151V289.89h24.357c5.84,60.163,25.692,108.318,59.565,144.477
		c32.637,34.84,75.601,55.787,128.923,62.852c12.475,1.648,25.525,2.55,39.138,2.679c1.173,0.009,2.357,0.018,3.543,0.018
		c22.858,0,43.918-0.898,63.19-2.696c10.198-0.945,19.896-2.156,29.076-3.604c26.543-4.204,52.652-10.405,78.323-18.594V239.046
		H233.354z M104.075,175.461c-6.063,19.316-9.478,39.769-10.238,64.307H71.151V62.204h108.963
		c-23.116,17.834-41.809,40.122-56.07,66.862C115.64,144.821,108.979,159.765,104.075,175.461"/>
</g>
</svg>
